# xmcd
#
# Track frame offsets:
#	150
#	19283
#	37387
#	54188
#	72567
#	90336
#	109043
#	125224
#	144085
#	158589
#	169689
#	187048
#	204600
#
# Disc length: 2989 seconds
#
# Revision: 1
# Processed by: cddbd v1.5.2PL0 Copyright (c) Steve Scherf et al.
# Submitted via: EasyCDDAExtractor 15.3.0.1
#
DISCID=b60bab0d
DTITLE=Noelia - Volverte A Ver
DYEAR=2007
DGENRE=Latin
TTITLE0=Te Seguire
TTITLE1=Nada, Nada De Ti
TTITLE2=Volverte A Ver
TTITLE3=Yo Te Amaria
TTITLE4=Tu Y Yo
TTITLE5=Voy A Caminar
TTITLE6=Si El Amor Se Rompe
TTITLE7=Con El Tiempo
TTITLE8=Prefiero Olvidar
TTITLE9=Alla Voy
TTITLE10=Enamorada De Ti (Remix)
TTITLE11=Te Seguire (Ballad)
TTITLE12=Enamorada De Ti (Salsa)
EXTD=
EXTT0=
EXTT1=
EXTT2=
EXTT3=
EXTT4=
EXTT5=
EXTT6=
EXTT7=
EXTT8=
EXTT9=
EXTT10=
EXTT11=
EXTT12=
PLAYORDER=
